<svg id="Layer_1" data-name="Layer 1" xmlns="http://www.w3.org/2000/svg" xmlns:xlink="http://www.w3.org/1999/xlink" viewBox="0 0 225.01 90.26"><defs><linearGradient id="linear-gradient" x1="217.11" y1="398.06" x2="280.83" y2="398.06" gradientUnits="userSpaceOnUse"><stop offset="0" stop-color="#5e566a"/><stop offset="0.55" stop-color="#939598"/><stop offset="1" stop-color="#5e566a"/></linearGradient></defs><title>logo</title><path d="M257.28,391.05c-8.56.76-15.75.53-22.87-1.74-2.73,3.86-8.25,12.34-11,19.08-7.72,19.31,4.32,22.72,18.25,11.14,7.8-6.59,15.83-16.44,19.84-23.86,4.7-8.78,8.71-2.65,4.32,2.12a46,46,0,0,0-9.92,20.3c-2.35,12.79,5.15,10.9,11.13,3.48a54.71,54.71,0,0,0,6.59-10.75c.68-1.44,2.12-1.52,1.29.3a73.1,73.1,0,0,1-7.05,12.12c-2.57,3.48-6.89,6.51-11.13,6.51-8.41,0-6.51-14.92-3.1-19.39-6.21,7.35-20.38,21.81-31.13,17.19-7.27-3.1-7.27-16.51.3-30.21a55.8,55.8,0,0,1,6.67-9.62,23.55,23.55,0,0,1-7.57-5.23c-2.13-2.42-2.35-7.34-.69-8.55.91-1.22,2.2-.38,1.37,1.44-1,2.27-.16,4,1.59,6a20.3,20.3,0,0,0,6.66,4.77c9.54-10.6,22.19-19.77,37-19.77,8.1,0,13,4,13,9.62S274.93,389.46,257.28,391.05ZM268,368.33c-14.16,0-23.93,9.32-32.41,19.47,5.91,1.89,12,2.27,21.66,1.43,12.57-1.06,20.45-6.66,20.45-14.16C277.73,370.6,273.56,368.33,268,368.33Z" transform="translate(-217.11 -351.22)" fill="url(#linear-gradient)"/><line x1="79.07" x2="79.07" y2="90.26" fill="#231f20" stroke="#231f20" stroke-miterlimit="10"/><path d="M320.22,394h-6.48l-1.4,3.11h-1.28l5.32-11.65h1.22l5.32,11.65h-1.3Zm-.45-1L317,386.7,314.19,393Z" transform="translate(-217.11 -351.22)" fill="#3c2415"/><path d="M337.44,396v1.07h-8.23V385.41h8v1.07h-6.75v4.14h6v1.05h-6V396Z" transform="translate(-217.11 -351.22)" fill="#3c2415"/><path d="M343.58,395.64l.48-.94a5.73,5.73,0,0,0,3.84,1.41c2.18,0,3.13-.92,3.13-2.06,0-3.2-7.17-1.23-7.17-5.54,0-1.71,1.33-3.2,4.29-3.2a6.57,6.57,0,0,1,3.61,1l-.42,1a6,6,0,0,0-3.19-1c-2.13,0-3.08.95-3.08,2.11,0,3.2,7.17,1.27,7.17,5.51,0,1.71-1.36,3.18-4.34,3.18A6.28,6.28,0,0,1,343.58,395.64Z" transform="translate(-217.11 -351.22)" fill="#3c2415"/><path d="M361.54,386.48h-4.09v-1.07h9.41v1.07h-4.09v10.58h-1.23Z" transform="translate(-217.11 -351.22)" fill="#3c2415"/><path d="M382.91,385.41v11.65H381.7v-5.38h-7.29v5.38h-1.23V385.41h1.23v5.19h7.29v-5.19Z" transform="translate(-217.11 -351.22)" fill="#3c2415"/><path d="M399.3,396v1.07h-8.24V385.41h8v1.07H392.3v4.14h6v1.05h-6V396Z" transform="translate(-217.11 -351.22)" fill="#3c2415"/><path d="M408.81,386.48h-4.09v-1.07h9.41v1.07H410v10.58h-1.23Z" transform="translate(-217.11 -351.22)" fill="#3c2415"/><path d="M420.46,385.41h1.23v11.65h-1.23Z" transform="translate(-217.11 -351.22)" fill="#3c2415"/><path d="M428.8,391.24a5.86,5.86,0,0,1,6.11-5.93,5.64,5.64,0,0,1,4.26,1.7l-.79.78a4.61,4.61,0,0,0-3.44-1.38,4.83,4.83,0,1,0,0,9.65,4.56,4.56,0,0,0,3.44-1.4l.79.78a5.67,5.67,0,0,1-4.28,1.72A5.84,5.84,0,0,1,428.8,391.24Z" transform="translate(-217.11 -351.22)" fill="#3c2415"/><path d="M320.22,413.91h-6.48l-1.4,3.11h-1.28l5.32-11.64h1.22L322.92,417h-1.3Zm-.45-1L317,406.66l-2.79,6.25Z" transform="translate(-217.11 -351.22)" fill="#3c2415"/><path d="M338.94,405.38V417h-1l-7.48-9.45V417h-1.23V405.38h1l7.5,9.44v-9.44Z" transform="translate(-217.11 -351.22)" fill="#3c2415"/><path d="M354.39,413.91H347.9L346.5,417h-1.28l5.33-11.64h1.21L357.08,417h-1.3Zm-.45-1-2.8-6.25-2.79,6.25Z" transform="translate(-217.11 -351.22)" fill="#3c2415"/><path d="M362.26,415.6l.48-.94a5.73,5.73,0,0,0,3.84,1.41c2.18,0,3.13-.92,3.13-2.06,0-3.2-7.17-1.23-7.17-5.54,0-1.71,1.33-3.19,4.29-3.19a6.57,6.57,0,0,1,3.61,1l-.42,1a6,6,0,0,0-3.19-1c-2.13,0-3.08.95-3.08,2.12,0,3.19,7.17,1.26,7.17,5.5,0,1.71-1.36,3.18-4.34,3.18A6.28,6.28,0,0,1,362.26,415.6Z" transform="translate(-217.11 -351.22)" fill="#3c2415"/><path d="M380.22,406.44h-4.09v-1.06h9.41v1.06h-4.09V417h-1.23Z" transform="translate(-217.11 -351.22)" fill="#3c2415"/><path d="M399.16,413.91h-6.48l-1.4,3.11H390l5.32-11.64h1.22L401.86,417h-1.3Zm-.44-1-2.8-6.25-2.79,6.25Z" transform="translate(-217.11 -351.22)" fill="#3c2415"/><path d="M407,415.6l.49-.94a5.73,5.73,0,0,0,3.84,1.41c2.18,0,3.12-.92,3.12-2.06,0-3.2-7.16-1.23-7.16-5.54,0-1.71,1.33-3.19,4.29-3.19a6.59,6.59,0,0,1,3.61,1l-.42,1a6,6,0,0,0-3.19-1c-2.13,0-3.08.95-3.08,2.12,0,3.19,7.17,1.26,7.17,5.5,0,1.71-1.37,3.18-4.34,3.18A6.32,6.32,0,0,1,407,415.6Z" transform="translate(-217.11 -351.22)" fill="#3c2415"/><path d="M422.73,405.38H424V417h-1.23Z" transform="translate(-217.11 -351.22)" fill="#3c2415"/><path d="M439.42,413.91h-6.49l-1.4,3.11h-1.28l5.32-11.64h1.22L442.11,417h-1.3Zm-.45-1-2.8-6.25-2.79,6.25Z" transform="translate(-217.11 -351.22)" fill="#3c2415"/></svg>