<?xml version="1.0" encoding="utf-8"?>
<!-- Generator: Adobe Illustrator 23.1.0, SVG Export Plug-In . SVG Version: 6.00 Build 0)  -->
<svg version="1.1" id="Layer_1" xmlns="http://www.w3.org/2000/svg" xmlns:xlink="http://www.w3.org/1999/xlink" x="0px" y="0px"
	 viewBox="0 0 299.9 143.2" style="enable-background:new 0 0 299.9 143.2;" xml:space="preserve">
<style type="text/css">
	.st0{enable-background:new    ;}
	.st1{fill:#231F20;}
</style>
<title>Asset 4</title>
<g>
	<g id="Layer_1-2">
		<g class="st0">
			<path class="st1" d="M17.2,30.4v3.1h20.7v9.4H17.2v18.4H5.5V30.5c0-13,8.6-20.5,23.1-20.5c5.8,0,11,1.2,14.8,3.5l-3.6,9.2
				c-3.1-2-6.8-2.8-10.4-2.8C21.4,19.9,17.2,23.4,17.2,30.4z"/>
		</g>
		<g class="st0">
			<path class="st1" d="M86.6,22.5v38.7H75.9v-4.5c-2.8,3.4-6.9,5-12.1,5c-10.9,0-19.4-7.8-19.4-19.9c0-12.2,8.4-19.9,19.4-19.9
				c4.8,0,8.8,1.5,11.6,4.7v-4.1H86.6z M75.6,41.8c0-6.7-4.3-10.7-9.9-10.7c-5.6,0-9.9,4-9.9,10.7c0,6.7,4.3,10.7,9.9,10.7
				C71.3,52.6,75.6,48.5,75.6,41.8z"/>
			<path class="st1" d="M135.4,22.5l-16.3,38.7h-11.6L91.2,22.5h11.6l10.7,26.4l11.1-26.4H135.4z"/>
		</g>
		<g class="st0">
			<path class="st1" d="M86.4,87.7c-4.3-2.5-8.9-4.1-13.9-4.8V124H60.9V82.9c-5,0.7-9.6,2.3-14,4.8L43,79c7-4.2,15.3-6.3,23.7-6.3
				c8.5,0,16.8,2.1,23.8,6.3L86.4,87.7z"/>
			<path class="st1" d="M134.5,101.8V124h-11.2v-20.5c0-6.3-2.9-9.1-7.8-9.1c-5.4,0-9.3,3.3-9.3,10.4V124H94.9V70.6h11.2v18.7
				c3-3,7.3-4.6,12.3-4.6C127.6,84.7,134.5,90,134.5,101.8z"/>
			<path class="st1" d="M143.3,73.6c0-3.5,2.8-6.3,7-6.3c4.2,0,7,2.6,7,6c0,3.7-2.8,6.5-7,6.5C146.1,79.9,143.3,77.1,143.3,73.6z
				 M144.6,85.3h11.2V124h-11.2V85.3z"/>
		</g>
		<g class="st0">
			<path class="st1" d="M205.9,101.8V124h-11.2v-20.5c0-6.3-2.9-9.1-7.8-9.1c-5.4,0-9.3,3.3-9.3,10.4V124h-11.2V85.3H177v4.5
				c3-3.3,7.6-5.1,12.8-5.1C199,84.7,205.9,90,205.9,101.8z"/>
		</g>
		<g class="st0">
			<path class="st1" d="M256.4,85.3v32.3c0,14.4-7.8,21-21.7,21c-7.3,0-14.5-1.8-19-5.3l4.5-8.1c3.3,2.7,8.7,4.4,13.7,4.4
				c7.9,0,11.4-3.6,11.4-10.6v-1.7c-3,3.2-7.2,4.8-12.2,4.8c-10.7,0-19.4-7.4-19.4-18.7s8.6-18.7,19.4-18.7c5.4,0,9.9,1.8,12.8,5.5
				v-5H256.4z M245.3,103.4c0-5.7-4.2-9.5-10.2-9.5c-5.9,0-10.2,3.8-10.2,9.5s4.3,9.5,10.2,9.5C241.1,112.9,245.3,109.1,245.3,103.4
				z"/>
			<path class="st1" d="M263.1,120.4l3.7-8.1c3.5,2.2,8.7,3.7,13.5,3.7c5.2,0,7.1-1.4,7.1-3.5c0-6.3-23.4,0.1-23.4-15.3
				c0-7.3,6.6-12.5,17.9-12.5c5.3,0,11.2,1.2,14.9,3.4l-3.7,8c-3.8-2.2-7.6-2.9-11.2-2.9c-5,0-7.2,1.6-7.2,3.6
				c0,6.6,23.4,0.2,23.4,15.5c0,7.2-6.7,12.3-18.3,12.3C273.4,124.6,266.7,122.8,263.1,120.4z"/>
		</g>
		<path class="st1" d="M150,66.6c0,0-0.9-6.1-8.3-6.1S136,72.7,150,84.1"/>
		<path class="st1" d="M150,66.6c0,0,0.9-6.1,8.3-6.1s5.7,12.3-8.3,23.7"/>
	</g>
</g>
</svg>
