<?xml version="1.0" encoding="utf-8"?>
<!-- Generator: Adobe Illustrator 23.1.0, SVG Export Plug-In . SVG Version: 6.00 Build 0)  -->
<svg version="1.1" id="Layer_1" xmlns="http://www.w3.org/2000/svg" xmlns:xlink="http://www.w3.org/1999/xlink" x="0px" y="0px"
	 viewBox="0 0 302.1 277.9" style="enable-background:new 0 0 302.1 277.9;" xml:space="preserve">
<style type="text/css">
	.st0{fill:#0F1131;}
</style>
<title>logo-white</title>
<g id="Symbol">
	<path id="Symbol_Path" class="st0" d="M182.8,272.2c0,0-21.4-199.7-115.2-253.1C-86.2-61.7,133,220.7,152.1,245.7
		c59.8,61.6-18,16-18,16l5.8-9.3c0,0,60.7,52.8-13.7-25.4c0,0-143.4-145.8-124.4-208.8c0,0,17.3-57.5,107.3,32.2
		c0,0,45.9,36.7,83.1,177.1"/>
	<path id="Symbol_Path-2" class="st0" d="M194.7,219.2c0,0-32.4-42.4,0.5-107.3c0,0,31.6-56.3,86-44.9c0,0,55.4-1.3-46.9,73.6
		l9.7,20.1c0,0,127-120.3,5.1-96.8c-101.8,20.8-77.2,155.6-65.3,199.9"/>
</g>
</svg>
