<?xml version="1.0" encoding="utf-8"?>
<!-- Generator: Adobe Illustrator 23.1.0, SVG Export Plug-In . SVG Version: 6.00 Build 0)  -->
<svg version="1.1" id="Logo" xmlns="http://www.w3.org/2000/svg" xmlns:xlink="http://www.w3.org/1999/xlink" x="0px" y="0px"
	 viewBox="0 0 575 317.3" style="enable-background:new 0 0 575 317.3;" xml:space="preserve">
<style type="text/css">
	.st0{fill:#101132;}
	.st1{fill:#171516;}
</style>
<g id="Symbol_1_">
	<path id="Symbol_Path_2_" class="st0" d="M182.8,272.2c0,0-21.4-199.7-115.2-253.1C-86.2-61.6,133,220.7,152.1,245.7
		c59.8,61.6-18,16-18,16l5.8-9.3c0,0,60.7,52.8-13.7-25.4c0,0-143.4-145.8-124.5-208.8c0,0,17.2-57.5,107.3,32.2
		c0,0,45.9,36.7,83.1,177.1"/>
	<path id="Symbol_Path_1_" class="st0" d="M194.7,219.2c0,0-32.4-42.4,0.5-107.3c0,0,31.6-56.3,86-44.9c0,0,55.4-1.3-46.8,73.6
		l9.7,20.1c0,0,127-120.4,5.1-96.8c-101.8,20.8-77.2,155.6-65.3,199.9"/>
</g>
<g>
	<g>
		<path class="st1" d="M334.3,65.2h25.8v117h-25.8V65.2z"/>
		<path class="st1" d="M377.7,65.2h50.5v17.5h-24.7v29.5H425v18h-21.5v52h-25.8V65.2z"/>
		<path class="st1" d="M440.3,65.2h52.6v17.6h-26.7v29h20.4v17.9h-20.4v34.9h27v17.5h-52.8V65.2z"/>
	</g>
</g>
<g>
	<path class="st0" d="M329.6,263.6v-26.4c0-14.7,5.4-23.3,21.3-23.3c16.1,0,21.5,8.6,21.5,23.3v26.4c0,14.7-5.4,23.4-21.5,23.4
		C334.9,287,329.6,278.2,329.6,263.6z M356.3,267.5v-34.2c0-4.2-0.5-8.3-5.4-8.3c-4.6,0-5.3,4.1-5.3,8.3v34.2c0,4,0.4,8.3,5.3,8.3
		C355.8,275.9,356.3,271.6,356.3,267.5z"/>
	<path class="st0" d="M381.9,214.9h18.5c12.2,0,22.6,2.8,22.6,18.6c0,8.6-3.9,13.1-10.4,14.3c8.2,1.1,12.6,7,12.6,17.1
		c0,14.7-7.8,21.1-21.5,21.1h-21.8V214.9z M400.7,243.3c7.1,0,8.6-3.4,8.6-9.4c0-5.6-3.1-8.5-8.9-8.5h-2.7v17.9H400.7z M401,275
		c6.9,0,9.1-3.5,9.1-10.4c0-8-2.4-11-9.2-11h-3.2V275H401z"/>
	<path class="st0" d="M443.4,214.9h17.9l13.2,71.1H460l-2.4-15h-10.4l-2.5,15h-14.8L443.4,214.9z M456.2,261.6l-3.8-27.7l-3.8,27.7
		H456.2z"/>
	<path class="st0" d="M479.4,264.5l13.4-2c0.2,9.2,2.3,12.6,6.2,12.6c3.2,0,3.9-2.7,3.9-5.2c0-5.9-3-9.4-7.8-13.5l-6.1-5.4
		c-5.4-4.6-9.6-9.9-9.6-18.5c0-12,7.6-18.6,19.9-18.6c15.2,0,17.4,11.8,17.6,20.2l-13.5,1.7c-0.2-6.3-0.6-10.4-4.6-10.4
		c-2.9,0-4.2,3.1-4.2,5.5c0,5.3,2.7,8.1,6.8,11.7l5.9,5.2c6.1,5.3,11.1,11.5,11.1,21.3c0,10.1-7.3,17.9-18.6,17.9
		C486.4,287,479.9,280.3,479.4,264.5z"/>
	<path class="st0" d="M535.4,214.9h17.9l13.2,71.1h-14.5l-2.4-15h-10.4l-2.5,15H522L535.4,214.9z M548.2,261.6l-3.8-27.7l-3.8,27.7
		H548.2z"/>
</g>
</svg>
