<?xml version="1.0" encoding="utf-8"?>
<!-- Generator: Adobe Illustrator 23.1.0, SVG Export Plug-In . SVG Version: 6.00 Build 0)  -->
<svg version="1.1" id="Layer_1" xmlns="http://www.w3.org/2000/svg" xmlns:xlink="http://www.w3.org/1999/xlink" x="0px" y="0px"
	 viewBox="0 0 566.5 287" style="enable-background:new 0 0 566.5 287;" xml:space="preserve">
<style type="text/css">
	.st0{fill:#FFFFFF;}
</style>
<title>logo-white</title>
<g id="Symbol">
	<path id="Symbol_Path" class="st0" d="M182.8,281.2c0,0-21.4-206.3-115.2-261.4c-153.8-83.4,65.4,208.2,84.5,234
		c59.8,63.6-18,16.5-18,16.5l5.8-9.6c0,0,60.7,54.6-13.7-26.3c0,0-143.4-150.6-124.4-215.7C1.8,18.7,19-40.6,109,52
		c0,0,45.9,37.9,83.1,182.9"/>
	<path id="Symbol_Path-2" class="st0" d="M194.7,226.4c0,0-32.4-43.8,0.5-110.9c0,0,31.6-58.1,86-46.3c0,0,55.4-1.4-46.9,76
		l9.7,20.7c0,0,127-124.3,5.1-99.9C147.4,87.5,172,226.8,183.9,272.5"/>
</g>
<path class="st0" d="M334.3,65.2h25.9v117h-25.9V65.2z"/>
<path class="st0" d="M377.6,65.2h50.5v17.5h-24.7v29.5H425v18.1h-21.5v52h-25.9V65.2z"/>
<path class="st0" d="M440.3,65.2h52.6v17.6h-26.7v29h20.4v17.9h-20.4v34.9h27v17.5h-52.8V65.2z"/>
<path class="st0" d="M329.6,263.6v-26.4c0-14.6,5.4-23.3,21.3-23.3s21.5,8.6,21.5,23.3v26.4c0,14.6-5.4,23.4-21.5,23.4
	S329.6,278.2,329.6,263.6z M356.3,267.6v-34.3c0-4.2-0.5-8.3-5.4-8.3c-4.6,0-5.3,4.1-5.3,8.3v34.2c0,4,0.4,8.3,5.3,8.3
	S356.3,271.6,356.3,267.6L356.3,267.6z"/>
<path class="st0" d="M382,214.9h18.5c12.2,0,22.6,2.8,22.6,18.6c0,8.6-3.9,13.1-10.4,14.3c8.3,1,12.6,7,12.6,17.1
	c0,14.7-7.8,21.1-21.5,21.1H382V214.9z M400.8,243.3c7.1,0,8.6-3.4,8.6-9.4c0-5.6-3.1-8.5-9-8.5h-2.7v17.9H400.8z M401,275
	c6.9,0,9.1-3.5,9.1-10.4c0-8-2.4-11-9.2-11h-3.3V275H401z"/>
<path class="st0" d="M443.4,214.9h17.9l13.3,71.1H460l-2.4-15h-10.4l-2.5,15h-14.8L443.4,214.9z M456.2,261.6l-3.8-27.7l-3.8,27.7
	H456.2z"/>
<path class="st0" d="M479.4,264.5l13.4-2c0.2,9.2,2.3,12.6,6.2,12.6c3.3,0,4-2.7,4-5.2c0-5.9-3-9.4-7.8-13.5l-6.1-5.4
	c-5.4-4.6-9.6-9.9-9.6-18.5c0-12,7.6-18.6,19.9-18.6c15.2,0,17.4,11.9,17.6,20.2l-13.5,1.7c-0.2-6.3-0.6-10.4-4.6-10.4
	c-2.9,0-4.2,3.1-4.2,5.5c0,5.3,2.7,8.1,6.8,11.7l5.9,5.2c6.1,5.3,11.1,11.5,11.1,21.3c0,10.1-7.3,17.9-18.6,17.9
	C486.4,287,480,280.3,479.4,264.5z"/>
<path class="st0" d="M535.4,214.9h17.9l13.2,71.1h-14.5l-2.4-15h-10.4l-2.5,15H522L535.4,214.9z M548.2,261.6l-3.8-27.7l-3.8,27.7
	H548.2z"/>
</svg>
