<svg id="Layer_1" data-name="Layer 1" xmlns="http://www.w3.org/2000/svg" viewBox="0 0 566.54 287.02"><defs><style>.cls-1{fill:#fff;}</style></defs><title>logo-white</title><g id="Symbol"><path id="Symbol_Path" data-name="Symbol Path" class="cls-1" d="M182.79,272.22S161.39,72.52,67.63,19.1C-86.19-61.64,133,220.67,152.1,245.69c59.81,61.56-18,16-18,16l5.79-9.29s60.66,52.82-13.69-25.44c0,0-143.38-145.8-124.45-208.81,0,0,17.25-57.46,107.27,32.2,0,0,45.94,36.72,83.09,177.09"/><path id="Symbol_Path-2" data-name="Symbol Path" class="cls-1" d="M194.73,219.22s-32.38-42.45.54-107.33c0,0,31.6-56.25,86-44.86,0,0,55.41-1.32-46.85,73.62l9.71,20.08s127-120.35,5.07-96.77c-101.78,20.8-77.24,155.62-65.3,199.88"/></g><path class="cls-1" d="M334.33,65.24h25.85v117H334.33Z"/><path class="cls-1" d="M377.65,65.24h50.54V82.71H403.5v29.45H425v18.05H403.5v52H377.65Z"/><path class="cls-1" d="M440.32,65.24h52.56V82.85H466.16v29h20.36v17.91H466.16v34.94h27v17.47H440.32Z"/><path class="cls-1" d="M329.57,263.59V237.18c0-14.65,5.35-23.25,21.32-23.25s21.49,8.6,21.49,23.25v26.41c0,14.65-5.44,23.43-21.49,23.43S329.57,278.24,329.57,263.59Zm26.76,4V233.32c0-4.21-.53-8.33-5.44-8.33-4.65,0-5.27,4.12-5.27,8.33v34.22c0,4,.35,8.34,5.27,8.34S356.33,271.58,356.33,267.54Z"/><path class="cls-1" d="M382,214.9h18.51c12.19,0,22.63,2.81,22.63,18.6,0,8.6-3.94,13.07-10.44,14.3,8.25,1,12.64,7,12.64,17.11,0,14.74-7.81,21.06-21.5,21.06H382Zm18.77,28.42c7.11,0,8.6-3.42,8.6-9.38,0-5.62-3.07-8.51-8.95-8.51h-2.72v17.89ZM401,275c6.94,0,9.13-3.51,9.13-10.35,0-8-2.37-11-9.21-11h-3.25V275Z"/><path class="cls-1" d="M443.36,214.9h17.9L474.51,286H460l-2.37-15H447.22l-2.46,15H429.94Zm12.81,46.67-3.77-27.72-3.78,27.72Z"/><path class="cls-1" d="M479.42,264.47l13.42-2c.18,9.21,2.29,12.64,6.23,12.64,3.25,0,3.95-2.72,3.95-5.18,0-5.88-3-9.39-7.81-13.51l-6.14-5.35c-5.44-4.57-9.56-9.92-9.56-18.52,0-12,7.63-18.6,19.92-18.6,15.17,0,17.37,11.85,17.63,20.18l-13.51,1.67c-.18-6.32-.62-10.35-4.65-10.35-2.9,0-4.21,3.07-4.21,5.52,0,5.27,2.72,8.08,6.84,11.67l5.88,5.18c6.14,5.26,11.05,11.49,11.05,21.32,0,10.09-7.28,17.9-18.6,17.9C486.44,287,480,280.26,479.42,264.47Z"/><path class="cls-1" d="M535.4,214.9h17.9L566.54,286H552.07l-2.37-15H539.26l-2.46,15H522Zm12.81,46.67-3.78-27.72-3.77,27.72Z"/></svg>