<?xml version="1.0" encoding="utf-8"?>
<!-- Generator: Adobe Illustrator 23.1.0, SVG Export Plug-In . SVG Version: 6.00 Build 0)  -->
<svg version="1.1" id="Capa_1" xmlns="http://www.w3.org/2000/svg" xmlns:xlink="http://www.w3.org/1999/xlink" x="0px" y="0px"
	 viewBox="0 0 337.1 337.1" style="enable-background:new 0 0 337.1 337.1;" xml:space="preserve">
<style type="text/css">
	.st0{fill:#FFFFFF;}
</style>
<g>
	<path class="st0" d="M168.5,0C75.6,0,0,75.6,0,168.5c0,92.9,75.6,168.5,168.5,168.5c92.9,0,168.5-75.6,168.5-168.5
		C337.1,75.6,261.5,0,168.5,0z M271.4,224.3c-2.4,2.4-5.6,3.6-8.7,3.6c-3.2,0-6.3-1.2-8.7-3.6l-85.4-85.4l-85.4,85.4
		c-4.8,4.8-12.6,4.8-17.4,0c-4.8-4.8-4.8-12.6,0-17.4l94.2-94.1c4.8-4.8,12.6-4.8,17.4,0l94.2,94.1
		C276.2,211.7,276.2,219.5,271.4,224.3z"/>
</g>
</svg>
