<?xml version="1.0" encoding="utf-8"?>
<!-- Generator: Adobe Illustrator 23.0.1, SVG Export Plug-In . SVG Version: 6.00 Build 0)  -->
<svg version="1.1" id="Layer_1" xmlns="http://www.w3.org/2000/svg" xmlns:xlink="http://www.w3.org/1999/xlink" x="0px" y="0px"
	 viewBox="0 0 24 24" style="enable-background:new 0 0 24 24;" xml:space="preserve">
<style type="text/css">
	.st0{fill:#00A651;}
</style>
<title>YouTube icon</title>
<path class="st0" d="M23.5,6.2c-0.3-1-1.1-1.8-2.1-2.1C19.5,3.6,12,3.6,12,3.6s-7.5,0-9.4,0.5c-1,0.3-1.8,1.1-2.1,2.1
	C0.2,8.1,0,10.1,0,12c0,1.9,0.2,3.9,0.5,5.8c0.3,1,1.1,1.8,2.1,2.1c1.9,0.5,9.4,0.5,9.4,0.5s7.5,0,9.4-0.5c1-0.3,1.8-1.1,2.1-2.1
	c0.3-1.9,0.5-3.8,0.5-5.8C24,10.1,23.8,8.1,23.5,6.2z M9.6,15.6V8.4l6.3,3.6L9.6,15.6z"/>
</svg>
